<?xml version="1.0" encoding="iso-8859-1"?>
<!-- Generator: Adobe Illustrator 19.0.0, SVG Export Plug-In . SVG Version: 6.00 Build 0)  -->
<svg version="1.1" id="Capa_1" xmlns="http://www.w3.org/2000/svg" xmlns:xlink="http://www.w3.org/1999/xlink" x="0px" y="0px"
	 viewBox="0 0 511.999 511.999" style="enable-background:new 0 0 511.999 511.999;" xml:space="preserve">
<path style="fill:#6D4D42;" d="M443.379,488.075c1.445,3.202,7.96,16.229,11.696,23.924h43.96
	c-16.828-41.953-47.512-96.923-71.584-133.324c-1.993-3.013-4.008-6.061-6.042-9.136c0.047-0.751,0.097-1.546,0.152-2.434
	c3.388-54.208-0.502-108.848-5.863-162.794c-0.478-4.815-0.752-7.567-0.752-7.567l-28.195,2.006c0,0,0.078,2.712,0.214,7.459
	c1.063,36.94,0.967,73.904-1.172,110.805c-0.048,0.755-0.095,1.498-0.142,2.246c-1.686-2.226-3.395-4.441-5.111-6.661
	c-12.312-15.935-24.871-31.629-38.113-46.805c-1.571-1.802-3.136-3.595-4.703-5.392c0.001-0.106,0.002-0.2,0.003-0.308
	c0.361-39.656-5.27-79.933-20.029-116.906c-1.332-3.338-2.093-5.246-2.093-5.246l-22.387,8.025c0,0,0.435,1.764,1.196,4.851
	c5.16,20.932,7.025,42.456,6.683,63.978c-0.029,1.8-0.067,3.584-0.114,5.348c-7.118-7.508-14.318-14.998-21.729-22.217
	c-33.591-32.721-68.575-63.774-104.859-93.486l-19.976,24.498c0,0,5.979,5.076,16.442,13.957
	c34.822,29.56,67.8,61.336,99.065,94.622c2.175,2.315,4.341,4.675,6.513,7.052c-3.718-0.211-7.579-0.526-11.556-0.91
	c-34.065-3.281-68.912-13.064-97.322-32.621c-3.613-2.487-5.677-3.909-5.677-3.909l-18.112,23.337c0,0,2.313,1.82,6.359,5.007
	c44.621,35.13,104.569,49.517,160.606,49.021c0.28-0.002,0.53-0.007,0.797-0.011c1.218,1.446,2.431,2.889,3.651,4.338
	c10.028,11.913,19.803,24.121,29.113,36.602c3.018,4.047,6.034,8.093,9.053,12.139c-1.252-0.277-2.506-0.555-3.781-0.837
	c-51.086-11.308-104.263-13.118-156.401-12.73c-6.217,0.046-9.77,0.073-9.77,0.073l-0.322,25.257c0,0,3.463,0.211,9.526,0.581
	c33.692,2.055,66.998,5.086,100.216,11.202c32.661,6.014,68.424,13.077,97.273,30.348c0.138,0.082,0.176,0.123,0.264,0.179
	c0.1,0.067,0.18,0.121,0.266,0.177c8.707,13.683,17.058,27.601,25.039,41.72c0.771,1.364,1.535,2.717,2.293,4.057
	c0.182,0.336,0.361,0.664,0.543,0.999c-1.431-0.367-2.854-0.731-4.31-1.104c-21.093-5.403-42.977-8.948-64.674-10.713
	c-8.511-0.692-16.944-0.843-25.476-0.706c-4.208,0.068-6.614,0.106-6.614,0.106v27.37c7.168,0.549,14.311,1.175,21.444,2.081
	c31.921,4.053,62.108,14.133,91.64,26.569C434.852,484.025,439.136,486.024,443.379,488.075z"/>
<circle style="fill:#AD302D;" cx="418.069" cy="213.587" r="19.615"/>
<path style="fill:#543A33;" d="M324.931,442.786c-2.59-0.18-5.08-0.298-7.507-0.376v11.135c7.168,0.549,14.311,1.175,21.444,2.081
	c31.921,4.053,62.108,14.133,91.64,26.569c4.344,1.83,8.628,3.829,12.871,5.88C443.379,488.075,423.456,449.638,324.931,442.786z"/>
<circle style="fill:#AD302D;" cx="335.932" cy="431.789" r="19.615"/>
<circle style="fill:#CE4C48;" cx="309.632" cy="430.357" r="19.615"/>
<path style="fill:#543A33;" d="M310.738,284.496c0.28-0.002,0.53-0.007,0.797-0.011c0,0-160.805-36.03-139.154-70.274
	c-1.624-1.03-3.235-2.081-4.82-3.171c-3.613-2.487-5.677-3.909-5.677-3.909l-18.112,23.337c0,0,2.313,1.82,6.359,5.007
	C194.754,270.606,254.7,284.992,310.738,284.496z"/>
<circle style="fill:#AD302D;" cx="149.871" cy="236.086" r="19.615"/>
<circle style="fill:#CE4C48;" cx="174.74" cy="211.217" r="19.615"/>
<circle style="fill:#E95552;" cx="148.439" cy="209.785" r="19.615"/>
<path style="fill:#44C2A7;" d="M164.945,35.423c-7.326,0.49-26.37-0.721-37.616-24.259c-0.585-1.225-1.957-1.859-3.271-1.513
	c-8.275,2.179-37.509,8.412-62.983-4.185c-2.359-1.167-4.911,1.301-3.822,3.697C69,35.041,61.802,64.052,59.35,72.251
	c-0.389,1.301,0.199,2.694,1.404,3.319c23.152,12.019,23.733,31.092,23.001,38.398c-0.16,1.597,1.069,2.967,2.669,3.085
	c24.876,1.834,39.666,27.294,43.845,35.587c0.699,1.388,2.385,1.954,3.776,1.261c24.774-12.355,48.918-7.525,59.198-4.445
	c2.12,0.636,4.114-1.293,3.549-3.434c-2.738-10.376-6.767-34.667,6.402-59.018c0.74-1.367,0.229-3.07-1.135-3.815
	c-8.15-4.45-33.106-20.074-34.115-44.997C167.876,36.589,166.546,35.316,164.945,35.423z"/>
<path style="fill:#543A33;" d="M212.421,338.29c-10.319-0.35-20.04-0.288-29.202,0.132l-0.139,10.907c0,0,3.463,0.211,9.526,0.581
	c33.692,2.055,66.998,5.086,100.216,11.202c32.661,6.014,68.424,13.077,97.273,30.348c0.138,0.082,0.176,0.123,0.264,0.179
	c0.1,0.067,0.181,0.121,0.266,0.177C390.623,391.816,376.082,343.846,212.421,338.29z"/>
<g>
	<path style="fill:#14977C;" d="M112.226,274.797c-5.114,5.268-20.072,17.116-44.183,7.159c-1.255-0.518-2.699-0.07-3.443,1.065
		c-4.689,7.159-22.233,31.359-49.591,39.053c-2.534,0.713-2.777,4.254-0.365,5.305c26.049,11.36,40.122,37.73,43.79,45.463
		c0.582,1.227,1.951,1.868,3.266,1.526c25.246-6.569,38.444,7.21,42.791,13.129c0.95,1.293,2.78,1.489,4.049,0.506
		c19.708-15.29,47.738-6.277,56.393-2.913c1.448,0.562,3.08-0.144,3.649-1.591c10.134-25.763,31.303-38.337,41.002-42.93
		c2.001-0.948,2.19-3.715,0.338-4.926c-8.98-5.875-28.233-21.224-34.752-48.129c-0.366-1.51-1.885-2.433-3.398-2.074
		c-9.034,2.15-38.032,7.248-55.466-10.591C115.184,273.702,113.344,273.645,112.226,274.797z"/>
	<path style="fill:#14977C;" d="M329.032,62.398c-6.042-2.254-20.848-10.102-21.348-33.006c-0.026-1.192-0.896-2.195-2.072-2.393
		c-7.411-1.245-33.065-6.815-48.907-26.1c-1.467-1.786-4.401-0.732-4.396,1.579c0.057,24.958-16.185,45.581-21.109,51.259
		c-0.781,0.901-0.814,2.228-0.075,3.165c14.192,17.985,7.768,33.462,4.542,39.046c-0.705,1.22-0.216,2.762,1.022,3.434
		c19.251,10.454,21.893,36.176,22.243,44.324c0.059,1.364,1.202,2.426,2.566,2.374c24.295-0.942,41.877,11.646,48.993,17.825
		c1.468,1.274,3.76,0.451,4.081-1.466c1.556-9.295,7.105-30.196,26.443-44.932c1.086-0.827,1.292-2.375,0.469-3.463
		c-4.917-6.507-19.25-28.028-11.056-48.343C330.956,64.391,330.353,62.891,329.032,62.398z"/>
	<path style="fill:#14977C;" d="M99.677,60.304c-4.702,1.756-8.733,4.349-11.404,6.61c-3.257,2.756-3.663,7.632-0.907,10.889
		c1.528,1.806,3.708,2.736,5.902,2.735c1.763,0,3.536-0.601,4.987-1.829c1.831-1.548,9.425-6.554,14.884-4.491l10.367,10.715
		c-4.703,1.755-8.734,4.349-11.404,6.61c-3.257,2.757-3.663,7.632-0.907,10.889c1.528,1.806,3.708,2.735,5.902,2.735
		c1.763,0,3.536-0.601,4.987-1.829c1.832-1.549,9.426-6.553,14.884-4.491l10.366,10.715c-4.703,1.755-8.734,4.349-11.404,6.61
		c-3.257,2.757-3.663,7.632-0.907,10.889c1.528,1.806,3.708,2.735,5.902,2.735c1.763,0,3.536-0.601,4.987-1.829
		c1.831-1.549,9.424-6.555,14.884-4.491l25.157,26.003c1.515,1.567,3.534,2.354,5.554,2.354c1.934,0,3.871-0.722,5.371-2.174
		c3.067-2.967,3.148-7.858,0.18-10.925l-25.175-26.022c-2.165-6.307,4.854-14.541,5.022-14.734
		c2.839-3.165,2.588-8.033-0.569-10.888c-3.164-2.863-8.05-2.618-10.913,0.547c-2.348,2.595-5.073,6.538-6.984,11.18l-10.384-10.733
		c-2.169-6.315,4.874-14.563,5.022-14.734c2.838-3.166,2.587-8.032-0.57-10.888c-3.164-2.863-8.049-2.618-10.913,0.547
		c-2.348,2.595-5.073,6.538-6.984,11.18l-10.384-10.734c-2.169-6.315,4.873-14.562,5.022-14.734
		c2.838-3.165,2.587-8.032-0.569-10.888c-3.165-2.862-8.05-2.618-10.914,0.546c-2.348,2.595-5.073,6.538-6.984,11.18L98.784,37.157
		c-2.967-3.067-7.858-3.149-10.925-0.18c-3.067,2.967-3.148,7.858-0.18,10.925L99.677,60.304z"/>
</g>
<g>
	<path style="fill:#117D66;" d="M205.241,330.052l-36.122-2.48c-5.836-3.238-6.128-14.072-6.132-14.307
		c-0.01-4.251-3.455-7.699-7.711-7.707c-0.005,0-0.01,0-0.015,0c-4.26,0-7.717,3.449-7.726,7.711
		c-0.007,3.5,0.608,8.253,2.295,12.979l-14.9-1.023c-5.836-3.239-6.128-14.072-6.132-14.307c-0.01-4.251-3.455-7.699-7.711-7.707
		c-0.005,0-0.01,0-0.015,0c-4.26,0-7.717,3.449-7.726,7.711c-0.007,3.5,0.608,8.253,2.295,12.979l-14.9-1.023
		c-5.836-3.239-6.128-14.072-6.132-14.307c-0.01-4.251-3.455-7.699-7.711-7.707c-0.005,0-0.01,0-0.015,0
		c-4.26,0-7.717,3.449-7.726,7.711c-0.007,3.5,0.608,8.253,2.295,12.979l-17.216-1.182c-4.259-0.301-7.946,2.923-8.237,7.179
		c-0.293,4.257,2.922,7.945,7.179,8.237l17.216,1.182c-2.318,4.452-3.576,9.077-4.048,12.543c-0.575,4.228,2.387,8.122,6.615,8.697
		c0.353,0.048,0.704,0.071,1.051,0.071c3.804,0,7.12-2.811,7.646-6.687c0.323-2.377,2.613-11.178,8.051-13.3l14.874,1.021
		c-2.318,4.452-3.576,9.077-4.048,12.545c-0.573,4.213,2.369,8.079,6.58,8.672c0.365,0.051,0.725,0.076,1.083,0.076
		c3.778,0,7.082-2.787,7.644-6.63c0.016-0.114,1.77-10.914,8.029-13.339l14.9,1.023c-2.318,4.452-3.576,9.077-4.048,12.544
		c-0.573,4.213,2.369,8.079,6.58,8.672c0.365,0.051,0.725,0.076,1.083,0.076c3.778,0,7.083-2.787,7.644-6.63
		c0.016-0.114,1.77-10.914,8.029-13.339l36.122,2.48c0.18,0.012,0.36,0.019,0.537,0.019c4.026,0,7.421-3.12,7.701-7.198
		C212.712,334.032,209.498,330.344,205.241,330.052z"/>
	<path style="fill:#117D66;" d="M316.388,117.656c3.889-1.717,5.662-6.257,3.959-10.158c-1.707-3.911-6.26-5.698-10.172-3.991
		c-2.589,1.13-5.818,3.056-8.833,5.673l-3.896-10.844c0.596-4.364,6.559-8.009,8.765-9.004c3.889-1.717,5.662-6.257,3.959-10.158
		c-1.707-3.911-6.261-5.697-10.172-3.991c-2.589,1.13-5.818,3.056-8.833,5.673l-3.896-10.844c0.596-4.364,6.559-8.009,8.765-9.003
		c3.889-1.717,5.662-6.257,3.959-10.158c-1.708-3.911-6.261-5.697-10.172-3.991c-2.589,1.13-5.818,3.056-8.833,5.672l-4.659-12.964
		c-1.442-4.016-5.868-6.103-9.884-4.658c-4.016,1.443-6.102,5.868-4.658,9.884l4.653,12.949c-3.992-0.101-7.702,0.485-10.417,1.262
		c-4.103,1.173-6.479,5.45-5.305,9.552c1.173,4.103,5.452,6.477,9.552,5.305c0.091-0.025,8.666-2.165,12.463,1.389l3.886,10.814
		c-3.991-0.1-7.701,0.485-10.417,1.262c-4.102,1.172-6.479,5.45-5.305,9.552c1.173,4.102,5.449,6.477,9.552,5.305
		c0.09-0.026,8.665-2.165,12.462,1.389l3.886,10.814c-3.992-0.101-7.701,0.485-10.417,1.262c-4.087,1.168-6.44,5.411-5.296,9.504
		c1.146,4.093,5.403,6.487,9.501,5.365c2.326-0.637,9.257-1.626,12.498,1.364l10.68,29.722c1.133,3.153,4.103,5.116,7.272,5.116
		c0.867,0,1.749-0.147,2.613-0.457c4.016-1.443,6.102-5.868,4.658-9.884l-10.68-29.723
		C308.22,122.295,314.183,118.65,316.388,117.656z"/>
</g>
<circle style="fill:#CE4C48;" cx="400.483" cy="193.972" r="19.615"/>
<g>
	<circle style="fill:#E95552;" cx="382.908" cy="213.587" r="19.615"/>
	<circle style="fill:#E95552;" cx="311.064" cy="456.658" r="19.615"/>
</g>
<g>
</g>
<g>
</g>
<g>
</g>
<g>
</g>
<g>
</g>
<g>
</g>
<g>
</g>
<g>
</g>
<g>
</g>
<g>
</g>
<g>
</g>
<g>
</g>
<g>
</g>
<g>
</g>
<g>
</g>
</svg>
