<svg height="512pt" viewBox="0 -8 512 512" width="512pt" xmlns="http://www.w3.org/2000/svg"><path d="m270.335938 167.421875-73.550782 20.632813-43.644531-155.582032c-.335937-1.195312.363281-2.4375 1.558594-2.773437l4.230469-1.1875c37.089843-10.402344 75.589843 11.226562 85.992187 48.316406zm0 0" fill="#bcbcc4"/><path d="m226.214844 74.101562 27.484375 97.988282 16.636719-4.667969-25.414063-90.59375c-8.582031-30.597656-36.289063-50.652344-66.550781-50.902344 22.417968 6.484375 41.074218 24.054688 47.84375 48.175781zm0 0" fill="#a6a6a6"/><path d="m220.28125 181.464844-43.632812-155.542969c-5.863282.097656-11.808594.933594-17.71875 2.589844l-4.230469 1.1875c-1.195313.335937-1.894531 1.578125-1.558594 2.773437l43.644531 155.582032zm0 0" fill="#e8e8ed"/><path d="m124.742188 136.304688c-15.804688-15.804688-35.457032-22.351563-46.410157-16.164063-2.273437-.785156-4.621093-1.207031-7.027343-1.207031-20.121094 0-36.429688 28.804687-36.429688 64.34375 0 35.535156 16.308594 64.339844 36.429688 64.339844 18.660156 0 34.035156-24.773438 36.171874-56.714844.15625-2.355469 2.53125-3.859375 4.734376-3.007813 10.679687 4.113281 20.539062 3.761719 26.273437-1.972656 9.90625-9.90625 3.753906-32.121094-13.742187-49.617187zm0 0" fill="#34b836"/><path d="m493.425781 136.308594c-17.496093-17.496094-39.710937-23.648438-49.617187-13.742188s-3.753906 32.117188 13.742187 49.613282c17.496094 17.496093 39.707031 23.648437 49.613281 13.742187s3.753907-32.117187-13.738281-49.613281zm0 0" fill="#34b836"/><path d="m124.742188 136.304688c-15.804688-15.804688-35.457032-22.351563-46.410157-16.164063-2.273437-.785156-4.621093-1.207031-7.027343-1.207031-.015626 0-.03125 0-.046876 0 9.203126 2.335937 19.488282 8.339844 28.523438 17.371094 17.496094 17.496093 23.648438 39.710937 13.742188 49.617187-.660157.660156-1.382813 1.242187-2.148438 1.761719.277344.035156.558594.101562.835938.210937 10.679687 4.113281 20.539062 3.761719 26.273437-1.972656 9.90625-9.90625 3.753906-32.121094-13.742187-49.617187zm0 0" fill="#1aa81a"/><path d="m493.429688 136.304688c-16.390626-16.386719-36.914063-22.820313-47.589844-15.433594 7.554687 3.042968 15.484375 8.292968 22.625 15.433594 17.496094 17.496093 23.648437 39.710937 13.742187 49.617187-.628906.628906-1.304687 1.191406-2.027343 1.691406 10.953124 4.40625 21.128906 4.171875 26.992187-1.691406 9.90625-9.90625 3.753906-32.121094-13.742187-49.617187zm0 0" fill="#1aa81a"/><path d="m507.367188 60.71875h-88.078126l32.558594-32.617188c3.015625-3.015624 3.015625-7.902343 0-10.917968-3.011718-3.011719-7.898437-3.011719-10.914062 0l-10.496094 10.511718v-19.976562c0-4.261719-3.453125-7.71875-7.71875-7.71875-4.261719 0-7.71875 3.453125-7.71875 7.71875v35.441406l-17.523438 17.558594h-392.84375c-2.558593 0-4.632812 2.074219-4.632812 4.632812v28.882813c0 2.554687 2.074219 4.628906 4.632812 4.628906h502.734376c2.558593 0 4.632812-2.074219 4.632812-4.628906v-28.882813c0-2.558593-2.074219-4.632812-4.632812-4.632812zm0 0" fill="#bc663b"/><path d="m507.367188 60.71875h-15.167969v13.714844c0 2.554687-2.074219 4.628906-4.632813 4.628906h-487.566406v15.171875c0 2.554687 2.074219 4.628906 4.632812 4.628906h37.144532l21.808594 21.808594v35.394531c0 4.265625 3.457031 7.71875 7.71875 7.71875 4.265624 0 7.71875-3.453125 7.71875-7.71875v-19.957031l10.496093 10.492187c3.636719 3.015626 7.277344 3.015626 10.914063 0 3.015625-3.011718 3.015625-7.898437 0-10.914062l-36.824219-36.824219h347.078125l47.742188 47.738281c3.636718 3.015626 7.277343 3.015626 10.914062 0 3.015625-3.011718 3.015625-7.898437 0-10.914062l-36.820312-36.824219h74.84375c2.558593 0 4.632812-2.074219 4.632812-4.632812v-28.878907c0-2.558593-2.074219-4.632812-4.632812-4.632812zm0 0" fill="#ad5731"/><path d="m238.476562 365.855469c-.074218 0-.148437 0-.222656-.003907-8.398437-.15625-10.539062-9.363281-13.246094-21.023437-.089843-.378906-.183593-.789063-.285156-1.214844-.304687.53125-.59375 1.035157-.859375 1.496094-1.925781 3.347656-3.917969 6.808594-5.792969 9.453125-1.46875 2.070312-5.9375 8.363281-12.632812 6.445312-8.164062-2.34375-7.742188-11.851562-7.203125-23.886718.023437-.539063.046875-1.132813.074219-1.757813-.621094.566407-1.207032 1.109375-1.730469 1.585938-8.65625 7.980469-15.5 14.28125-22.414063 9.523437-3.511718-2.414062-4.398437-7.222656-1.980468-10.734375 1.4375-2.09375 3.730468-3.253906 6.089844-3.339843 1.953124-1.375 5.5625-4.695313 7.847656-6.804688 8.648437-7.960938 14.894531-13.710938 21.703125-10.59375 5.460937 2.503906 6.242187 8.175781 6.058593 16.609375 4.339844-7.082031 8.273438-11.617187 14.257813-10.753906 6.207031.902343 8.464844 6.492187 10.640625 15.183593 2.5-8.398437 5.144531-14.125 11.402344-14.757812 6.257812-.640625 9.996094 4.449219 14.125 12.179688.390625-8.949219 1.488281-14.878907 7.390625-17.007813 5.691406-2.050781 10.449219 1.613281 16.117187 7.683594-1.863281-8.226563-2.230468-13.9375 2.617188-17.484375 6.046875-4.417969 13.316406-.03125 23.382812 6.039062 2.664063 1.605469 6.863282 4.140625 9.050782 5.09375 2.328124-.390625 4.808593.289063 6.636718 2.054688 3.070313 2.957031 3.164063 7.84375.207032 10.914062-5.824219 6.039063-13.785157 1.238282-23.871094-4.84375-.605469-.367187-1.285156-.777344-2.007813-1.210937.152344.609375.292969 1.183593.425781 1.707031 2.933594 11.6875 5.25 20.914062-2.28125 24.847656-6.175781 3.226563-11.8125-2.054687-13.664062-3.789062-2.367188-2.214844-5.011719-5.207032-7.566406-8.101563-.355469-.398437-.738282-.835937-1.144532-1.292969-.011718.4375-.023437.855469-.035156 1.242188-.324218 11.964844-.578125 21.417969-8.773437 23.25-8.046875 1.800781-12.03125-6.03125-17.542969-16.875-.230469-.453125-.484375-.949219-.75-1.46875-.15625.5625-.304688 1.097656-.4375 1.589844-3.203125 11.621094-5.527344 20.046875-13.585938 20.046875zm0 0" fill="#858585"/><path d="m100.152344 495.207031c-7.640625.003907-15.304688-2.734375-21.40625-8.28125-13.007813-11.824219-13.960938-31.957031-2.136719-44.960937 36.050781-39.648438 57.011719-73.027344 64.527344-135.761719 10.417969-86.957031 65.6875-128.972656 68.035156-130.71875 0 0 27.140625-22.089844 46.507813 1.367187 19.363281 23.460938-8.515626 49.714844-8.515626 49.714844l.273438-.207031c-1.46875 1.144531-36.054688 28.699219-43.089844 87.417969-9.457031 78.964844-37.867187 123.980468-80.636718 171.011718-6.28125 6.910157-14.90625 10.417969-23.558594 10.417969zm0 0" fill="#ed500a"/><path d="m394.285156 465.929688c-.167968-1.855469-4.652344-45.84375-50.246094-83.507813-61.316406-50.648437-83.828124-98.882813-100.273437-160.292969-4.546875-16.980468 5.53125-34.433594 22.511719-38.980468 16.980468-4.550782 34.433594 5.53125 38.984375 22.511718 13.859375 51.761719 30.609375 87.441406 79.320312 127.679688 67.523438 55.773437 72.992188 124.984375 73.191407 127.902344 0 0 1.824218 28.984374-24.621094 33.226562-30.234375 4.851562-38.890625-28.878906-38.890625-28.878906zm0 0" fill="#ed500a"/><path d="m457.773438 461.242188c-.199219-2.917969-5.667969-72.128907-73.191407-127.902344-48.710937-40.238282-65.460937-75.917969-79.324219-127.679688-4.546874-16.980468-22.003906-27.0625-38.980468-22.511718-2.203125.589843-4.289063 1.402343-6.242188 2.394531 8.820313 3.664062 15.90625 11.230469 18.566406 21.167969 13.863282 51.765624 30.613282 87.441406 79.324219 127.679687 67.523438 55.777344 72.992188 124.988281 73.191407 127.90625 0 0 1.351562 21.722656-15.457032 30.304687 4.8125 2.058594 10.582032 2.976563 17.488282 1.867188 26.449218-4.242188 24.625-33.226562 24.625-33.226562zm0 0" fill="#db3317"/><path d="m255.679688 176.851562c-5.042969-6.109374-10.613282-9.125-16.097657-10.25 9.773438 21.40625-12.90625 42.769532-12.90625 42.769532l.273438-.207032c-1.46875 1.144532-36.054688 28.699219-43.089844 87.414063-9.460937 78.96875-37.867187 123.980469-80.636719 171.015625-6.28125 6.910156-14.90625 10.417969-23.5625 10.417969-2.792968 0-5.59375-.371094-8.316406-1.105469 1.730469 3.6875 4.199219 7.105469 7.402344 10.019531 6.101562 5.546875 13.765625 8.28125 21.40625 8.28125 8.652344 0 17.277344-3.507812 23.558594-10.417969 42.769531-47.035156 71.175781-92.046874 80.636718-171.015624 7.035156-58.714844 41.621094-86.269532 43.089844-87.414063l-.273438.207031s27.878907-26.253906 8.515626-49.714844zm0 0" fill="#db3317"/><path d="m293.085938 17.355469c-.507813 1.703125-.074219 3.550781 1.152343 4.835937 17.808594 18.613282 25.390625 45.996094 17.472657 72.433594-10.0625 33.59375-45.539063 52.582031-79.074219 42.328125l-3.519531-1.074219-7.539063 25.175782 95.722656 29.074218 25.777344-86.054687c11.085937-37.007813-8.179687-75.867188-43.382813-89.917969-2.710937-1.085938-5.769531.402344-6.609374 3.199219zm0 0" fill="#bcbcc4"/><path d="m299.695312 14.152344c-2.710937-1.082032-5.769531.40625-6.609374 3.203125v.011719c30.726562 16.125 46.765624 52.214843 36.433593 86.707031l-24.644531 82.28125 12.425781 3.773437 25.777344-86.054687c11.085937-37.007813-8.179687-75.867188-43.382813-89.921875zm0 0" fill="#a6a6a6"/><path d="m299.28125 212.328125-69.1875-20.15625 13.652344-46.859375 79.835937 23.257812-10.550781 36.214844c-1.714844 5.878906-7.867188 9.253906-13.75 7.542969zm0 0" fill="#858585"/><path d="m304.164062 162.914062-8.195312 28.128907c-1.761719 6.054687-8.097656 9.527343-14.148438 7.765625l-49.460937-14.410156-2.265625 7.773437 68.878906 20.066406c6.050782 1.761719 12.386719-1.714843 14.148438-7.765625l10.460937-35.902344zm0 0" fill="#6e6e6e"/><path d="m283.894531 170.058594c0 25.003906-20.269531 45.269531-45.273437 45.269531-25 0-45.269532-20.265625-45.269532-45.269531s20.269532-45.269532 45.269532-45.269532c25.003906 0 45.273437 20.265626 45.273437 45.269532zm0 0" fill="#858585"/><path d="m266.058594 134.054688c4.753906 7.167968 7.53125 15.757812 7.53125 25.003906 0 25-20.269532 45.269531-45.269532 45.269531-10.316406 0-19.824218-3.457031-27.433593-9.265625 8.105469 12.210938 21.976562 20.269531 37.734375 20.269531 25.003906 0 45.273437-20.269531 45.273437-45.273437 0-14.6875-7-27.730469-17.835937-36.003906zm0 0" fill="#6e6e6e"/><path d="m256.730469 170.058594c0 10-8.105469 18.109375-18.109375 18.109375-10 0-18.105469-8.109375-18.105469-18.109375s8.105469-18.109375 18.105469-18.109375c10.003906 0 18.109375 8.109375 18.109375 18.109375zm0 0" fill="#d2d2dd"/><path d="m245.40625 153.277344c1.761719 2.792968 2.796875 6.089844 2.796875 9.636718 0 10-8.109375 18.109376-18.109375 18.109376-2.398438 0-4.6875-.480469-6.78125-1.328126 3.207031 5.085938 8.855469 8.472657 15.308594 8.472657 10.003906 0 18.109375-8.105469 18.109375-18.109375 0-7.601563-4.6875-14.097656-11.324219-16.78125zm0 0" fill="#bcbcc4"/></svg>